<svg width="1457" height="557" viewBox="0 0 1457 557" fill="none" xmlns="http://www.w3.org/2000/svg">
<rect width="1457" height="557" fill="white"/>
<rect x="32.5" y="22.5" width="1395" height="520" rx="12.5" stroke="#8438E4" stroke-width="5"/>
<rect width="1400" height="50" transform="translate(30 20)" fill="#A788F7"/>
<path d="M684.703 55.6875V58.875H664.828V50.625H668.828V55.6875H684.703ZM661.703 48.875V45.6875H672.672V41.6562H676.609V45.6875H687.641V48.875H661.703ZM663.078 40.2812C669.344 39.4062 672.594 35.9688 672.609 32.625V31.75H676.672V32.625C676.656 36.1406 679.797 39.4688 686.203 40.2812L684.672 43.4062C679.875 42.6406 676.375 40.5625 674.594 37.625C672.812 40.5469 669.359 42.6875 664.641 43.4062L663.078 40.2812ZM713.172 48.9688V59.375H709.172V52.1562H693.609V48.9688H713.172ZM689.797 39.4062C689.797 35.3906 693.141 32.4844 697.578 32.5C702 32.4844 705.344 35.3906 705.359 39.4062C705.344 43.5156 702 46.3906 697.578 46.375C693.141 46.3906 689.797 43.5156 689.797 39.4062ZM693.703 39.4062C693.672 41.7031 695.297 43.0156 697.578 43C699.797 43.0156 701.406 41.7031 701.422 39.4062C701.406 37.1875 699.797 35.8906 697.578 35.9062C695.297 35.8906 693.672 37.1875 693.703 39.4062ZM709.172 47.625V30.9375H713.172V47.625H709.172ZM743.016 45.5312V48.6562H732.297V53.25H728.359V48.6562H716.984V45.5312H743.016ZM720.047 58.875V51H723.984V55.6875H740.141V58.875H720.047ZM720.328 43.5312V31.8438H724.266V34.8125H735.672V31.8438H739.641V43.5312H720.328ZM724.266 40.375H735.672V37.7812H724.266V40.375ZM755.328 35.375C755.312 38.9219 757.297 42.3594 761.797 43.7812L759.672 46.9375C756.625 45.9062 754.531 43.8594 753.328 41.2812C752.078 44.0938 749.844 46.2969 746.641 47.4375L744.484 44.25C749.25 42.7344 751.281 39.0156 751.297 35.125V32.4062H755.328V35.375ZM749.109 52.3125V49.1562H768.641V59.375H764.672V52.3125H749.109ZM759.328 39.5V36.2188H764.672V30.9375H768.641V47.875H764.672V39.5H759.328ZM783.078 37.375C783.094 42.7188 785.25 47.9219 789.984 49.9688L787.547 53.1562C784.391 51.625 782.266 48.7812 781.078 45.2656C779.859 49 777.672 52.0625 774.422 53.6562L771.922 50.4062C776.797 48.2031 779.016 42.7188 779.047 37.375V33.125H783.078V37.375ZM786.797 43.0938V39.875H792.391V30.9375H796.328V59.4375H792.391V43.0938H786.797Z" fill="black"/>
<mask id="path-4-inside-1_412_85" fill="white">
<path d="M30 70H730V120H30V70Z"/>
</mask>
<path d="M30 70H730V120H30V70Z" fill="white"/>
<path d="M730 120V121H731V120H730ZM730 70H729V120H730H731V70H730ZM730 120V119H30V120V121H730V120Z" fill="#8438E4" mask="url(#path-4-inside-1_412_85)"/>
<path d="M350.149 83.1445C353.84 83.1719 356.561 85.4277 356.575 88.6406C356.561 91.8672 353.84 94.1094 350.149 94.1094C346.416 94.1094 343.709 91.8672 343.696 88.6406C343.709 85.4277 346.416 83.1719 350.149 83.1445ZM346.239 88.6406C346.225 90.6641 347.893 92.0039 350.149 92.0039C352.391 92.0039 354.059 90.6641 354.059 88.6406C354.059 86.6445 352.391 85.3047 350.149 85.332C347.893 85.3047 346.225 86.6445 346.239 88.6406ZM347.414 97.9922V95.9141H363.52V102.094H350.012V104.445H364.34V106.523H347.496V100.152H360.95V97.9922H347.414ZM360.922 94.793V82.3242H363.52V94.793H360.922ZM389.885 82.3242V106.824H387.396V94.0547H384.361V105.621H381.9V82.7891H384.361V91.9219H387.396V82.3242H389.885ZM369.623 100.371V85.0859H379.139V100.371H369.623ZM372.084 98.293H376.705V87.1367H372.084V98.293ZM416.714 93.0703V95.0117H406.843V97.0625H413.925V102.586H399.652V104.609H414.609V106.578H397.109V100.781H411.355V98.9492H397.082V97.0625H404.273V95.0117H394.429V93.0703H416.714ZM395.523 90.1445C400.212 89.8848 403.521 88.4492 404.054 86.3711H396.644V84.375H404.273V82.2148H406.843V84.375H414.5V86.3711H407.048C407.568 88.4492 410.877 89.8848 415.621 90.1445L414.828 92.1133C410.562 91.7988 407.089 90.5547 405.558 88.4082C404.027 90.5547 400.554 91.7988 396.261 92.1133L395.523 90.1445Z" fill="black"/>
<mask id="path-7-inside-2_412_85" fill="white">
<path d="M730 70H1430V120H730V70Z"/>
</mask>
<path d="M730 70H1430V120H730V70Z" fill="white"/>
<path d="M1430 120V119H730V120V121H1430V120Z" fill="#8438E4" mask="url(#path-7-inside-2_412_85)"/>
<path d="M1034.05 104.773C1030.38 104.746 1026.55 102.572 1026.55 95.2578C1026.57 88.3672 1029.55 84.4297 1034.29 84.4297C1037.94 84.4297 1040.47 86.6992 1040.94 89.8438H1037.96C1037.56 88.2305 1036.29 87.0684 1034.29 87.0547C1031.23 87.0684 1029.45 89.7207 1029.45 94.1914H1029.67C1030.75 92.5098 1032.61 91.5254 1034.76 91.5117C1038.29 91.5254 1041.13 94.2324 1041.13 98.0195C1041.13 101.861 1038.3 104.801 1034.05 104.773ZM1029.81 98.1016C1029.82 100.303 1031.59 102.244 1034.02 102.258C1036.41 102.244 1038.2 100.385 1038.2 98.0742C1038.2 95.8047 1036.48 93.959 1034.1 93.9727C1031.68 93.959 1029.84 95.9004 1029.81 98.1016ZM1051.22 104.773C1046.64 104.773 1043.95 101.082 1043.95 94.6016C1043.95 88.1621 1046.67 84.4297 1051.22 84.4297C1055.76 84.4297 1058.48 88.1621 1058.49 94.6016C1058.48 101.082 1055.8 104.773 1051.22 104.773ZM1046.95 94.6016C1046.94 99.5371 1048.54 102.176 1051.22 102.176C1053.88 102.176 1055.48 99.5371 1055.48 94.6016C1055.48 89.6797 1053.87 86.9863 1051.22 86.9727C1048.55 86.9863 1046.95 89.6797 1046.95 94.6016ZM1068.5 104.773C1063.92 104.773 1061.23 101.082 1061.23 94.6016C1061.23 88.1621 1063.95 84.4297 1068.5 84.4297C1073.04 84.4297 1075.76 88.1621 1075.77 94.6016C1075.76 101.082 1073.08 104.773 1068.5 104.773ZM1064.23 94.6016C1064.22 99.5371 1065.82 102.176 1068.5 102.176C1071.17 102.176 1072.77 99.5371 1072.77 94.6016C1072.77 89.6797 1071.15 86.9863 1068.5 86.9727C1065.83 86.9863 1064.23 89.6797 1064.23 94.6016ZM1081.71 102.613L1079.52 110.16H1077.2L1078.64 102.613H1081.71ZM1091.8 104.773C1087.22 104.773 1084.52 101.082 1084.52 94.6016C1084.52 88.1621 1087.24 84.4297 1091.8 84.4297C1096.34 84.4297 1099.06 88.1621 1099.07 94.6016C1099.06 101.082 1096.38 104.773 1091.8 104.773ZM1087.53 94.6016C1087.52 99.5371 1089.12 102.176 1091.8 102.176C1094.46 102.176 1096.06 99.5371 1096.06 94.6016C1096.06 89.6797 1094.45 86.9863 1091.8 86.9727C1089.13 86.9863 1087.53 89.6797 1087.53 94.6016ZM1109.08 104.773C1104.5 104.773 1101.8 101.082 1101.8 94.6016C1101.8 88.1621 1104.53 84.4297 1109.08 84.4297C1113.62 84.4297 1116.34 88.1621 1116.35 94.6016C1116.34 101.082 1113.66 104.773 1109.08 104.773ZM1104.81 94.6016C1104.8 99.5371 1106.4 102.176 1109.08 102.176C1111.74 102.176 1113.34 99.5371 1113.34 94.6016C1113.34 89.6797 1111.73 86.9863 1109.08 86.9727C1106.41 86.9863 1104.81 89.6797 1104.81 94.6016ZM1126.36 104.773C1121.78 104.773 1119.09 101.082 1119.09 94.6016C1119.09 88.1621 1121.81 84.4297 1126.36 84.4297C1130.9 84.4297 1133.62 88.1621 1133.63 94.6016C1133.62 101.082 1130.94 104.773 1126.36 104.773ZM1122.09 94.6016C1122.08 99.5371 1123.68 102.176 1126.36 102.176C1129.03 102.176 1130.62 99.5371 1130.62 94.6016C1130.62 89.6797 1129.01 86.9863 1126.36 86.9727C1123.69 86.9863 1122.09 89.6797 1122.09 94.6016Z" fill="black"/>
<mask id="path-10-inside-3_412_85" fill="white">
<path d="M30 120H730V170H30V120Z"/>
</mask>
<path d="M30 120H730V170H30V120Z" fill="white"/>
<path d="M730 170V171H731V170H730ZM730 120H729V170H730H731V120H730ZM730 170V169H30V170V171H730V170Z" fill="#8438E4" mask="url(#path-10-inside-3_412_85)"/>
<path d="M363.575 132.352V146.707H360.977V145.531H356.192V143.891H360.977V132.352H363.575ZM343.149 141.375C347.893 141.389 353.881 141.334 359.172 140.773L359.309 142.441C356.998 142.77 354.592 142.961 352.254 143.084V146.762H349.684V143.18C347.483 143.248 345.364 143.248 343.45 143.234L343.149 141.375ZM344.981 136.453C344.967 134.211 347.387 132.762 351.106 132.762C354.756 132.762 357.204 134.211 357.231 136.453C357.204 138.736 354.756 140.117 351.106 140.117C347.387 140.117 344.967 138.736 344.981 136.453ZM346.813 149.332V147.527H363.575V152.805H349.465V154.691H364.313V156.578H346.922V151.082H361.004V149.332H346.813ZM347.414 136.453C347.401 137.615 348.85 138.367 351.106 138.367C353.334 138.367 354.77 137.615 354.77 136.453C354.77 135.277 353.334 134.512 351.106 134.512C348.85 134.512 347.401 135.277 347.414 136.453ZM389.885 132.324V156.824H387.396V144.055H384.361V155.621H381.9V132.789H384.361V141.922H387.396V132.324H389.885ZM369.623 150.371V135.086H379.139V150.371H369.623ZM372.084 148.293H376.705V137.137H372.084V148.293ZM416.714 143.07V145.012H406.843V147.062H413.925V152.586H399.652V154.609H414.609V156.578H397.109V150.781H411.355V148.949H397.082V147.062H404.273V145.012H394.429V143.07H416.714ZM395.523 140.145C400.212 139.885 403.521 138.449 404.054 136.371H396.644V134.375H404.273V132.215H406.843V134.375H414.5V136.371H407.048C407.568 138.449 410.877 139.885 415.621 140.145L414.828 142.113C410.562 141.799 407.089 140.555 405.558 138.408C404.027 140.555 400.554 141.799 396.261 142.113L395.523 140.145Z" fill="black"/>
<mask id="path-13-inside-4_412_85" fill="white">
<path d="M730 120H1430V170H730V120Z"/>
</mask>
<path d="M730 120H1430V170H730V120Z" fill="white"/>
<path d="M1430 170V169H730V170V171H1430V170Z" fill="#8438E4" mask="url(#path-13-inside-4_412_85)"/>
<path d="M1016.55 134.703V154.5H1013.52V137.711H1013.41L1008.68 140.801V137.93L1013.6 134.703H1016.55ZM1028.5 154.773C1024.2 154.773 1021.2 152.449 1021.23 149.223C1021.2 146.68 1023.02 144.602 1025.36 144.246V144.137C1023.32 143.672 1021.97 141.867 1021.97 139.707C1021.97 136.658 1024.72 134.43 1028.5 134.43C1032.24 134.43 1035 136.658 1035.01 139.707C1035 141.867 1033.62 143.672 1031.62 144.137V144.246C1033.93 144.602 1035.76 146.68 1035.78 149.223C1035.76 152.449 1032.74 154.773 1028.5 154.773ZM1024.29 149.004C1024.25 150.945 1025.89 152.285 1028.5 152.285C1031.07 152.285 1032.71 150.945 1032.71 149.004C1032.71 146.967 1030.94 145.477 1028.5 145.477C1026.04 145.477 1024.25 146.967 1024.29 149.004ZM1024.89 139.98C1024.91 141.826 1026.38 143.111 1028.5 143.098C1030.57 143.111 1032.07 141.84 1032.06 139.98C1032.07 138.135 1030.62 136.877 1028.5 136.891C1026.33 136.877 1024.91 138.135 1024.89 139.98ZM1041.85 152.613L1039.66 160.16H1037.34L1038.79 152.613H1041.85ZM1051.94 154.773C1047.36 154.773 1044.66 151.082 1044.66 144.602C1044.66 138.162 1047.38 134.43 1051.94 134.43C1056.48 134.43 1059.2 138.162 1059.21 144.602C1059.2 151.082 1056.52 154.773 1051.94 154.773ZM1047.67 144.602C1047.66 149.537 1049.26 152.176 1051.94 152.176C1054.6 152.176 1056.2 149.537 1056.2 144.602C1056.2 139.68 1054.59 136.986 1051.94 136.973C1049.27 136.986 1047.67 139.68 1047.67 144.602ZM1069.22 154.773C1064.64 154.773 1061.95 151.082 1061.95 144.602C1061.95 138.162 1064.67 134.43 1069.22 134.43C1073.76 134.43 1076.48 138.162 1076.49 144.602C1076.48 151.082 1073.8 154.773 1069.22 154.773ZM1064.95 144.602C1064.94 149.537 1066.54 152.176 1069.22 152.176C1071.88 152.176 1073.48 149.537 1073.48 144.602C1073.48 139.68 1071.87 136.986 1069.22 136.973C1066.55 136.986 1064.95 139.68 1064.95 144.602ZM1086.5 154.773C1081.92 154.773 1079.23 151.082 1079.23 144.602C1079.23 138.162 1081.95 134.43 1086.5 134.43C1091.04 134.43 1093.76 138.162 1093.77 144.602C1093.76 151.082 1091.08 154.773 1086.5 154.773ZM1082.23 144.602C1082.22 149.537 1083.82 152.176 1086.5 152.176C1089.17 152.176 1090.77 149.537 1090.77 144.602C1090.77 139.68 1089.15 136.986 1086.5 136.973C1083.83 136.986 1082.23 139.68 1082.23 144.602ZM1099.71 152.613L1097.52 160.16H1095.2L1096.64 152.613H1099.71ZM1109.8 154.773C1105.22 154.773 1102.52 151.082 1102.52 144.602C1102.52 138.162 1105.24 134.43 1109.8 134.43C1114.34 134.43 1117.06 138.162 1117.07 144.602C1117.06 151.082 1114.38 154.773 1109.8 154.773ZM1105.53 144.602C1105.52 149.537 1107.12 152.176 1109.8 152.176C1112.46 152.176 1114.06 149.537 1114.06 144.602C1114.06 139.68 1112.45 136.986 1109.8 136.973C1107.13 136.986 1105.53 139.68 1105.53 144.602ZM1127.08 154.773C1122.5 154.773 1119.8 151.082 1119.8 144.602C1119.8 138.162 1122.53 134.43 1127.08 134.43C1131.62 134.43 1134.34 138.162 1134.35 144.602C1134.34 151.082 1131.66 154.773 1127.08 154.773ZM1122.81 144.602C1122.8 149.537 1124.4 152.176 1127.08 152.176C1129.74 152.176 1131.34 149.537 1131.34 144.602C1131.34 139.68 1129.73 136.986 1127.08 136.973C1124.41 136.986 1122.81 139.68 1122.81 144.602ZM1144.36 154.773C1139.78 154.773 1137.09 151.082 1137.09 144.602C1137.09 138.162 1139.81 134.43 1144.36 134.43C1148.9 134.43 1151.62 138.162 1151.63 144.602C1151.62 151.082 1148.94 154.773 1144.36 154.773ZM1140.09 144.602C1140.08 149.537 1141.68 152.176 1144.36 152.176C1147.03 152.176 1148.62 149.537 1148.62 144.602C1148.62 139.68 1147.01 136.986 1144.36 136.973C1141.69 136.986 1140.09 139.68 1140.09 144.602Z" fill="black"/>
<mask id="path-16-inside-5_412_85" fill="white">
<path d="M30 170H730V220H30V170Z"/>
</mask>
<path d="M30 170H730V220H30V170Z" fill="white"/>
<path d="M730 220V221H731V220H730ZM730 170H729V220H730H731V170H730ZM730 220V219H30V220V221H730V220Z" fill="#8438E4" mask="url(#path-16-inside-5_412_85)"/>
<path d="M352.686 182.352V196.762H350.225V190.473H347.272V196.625H344.811V182.789H347.272V188.312H350.225V182.352H352.686ZM331.796 195.039C336.745 193.098 339.425 190.049 339.876 186.207H332.862V184.102H342.514C342.514 190.049 339.329 194.383 333.054 196.98L331.796 195.039ZM335.952 199.934V197.828H352.686V206.824H350.116V199.934H335.952ZM369.946 184.484C369.932 187.738 373.911 190.787 378.723 191.43L377.711 193.562C373.705 192.92 370.192 190.842 368.592 187.957C366.993 190.842 363.479 192.92 359.5 193.562L358.461 191.43C363.26 190.787 367.225 187.779 367.239 184.484V183.145H369.946V184.484ZM357.395 198.102V195.969H379.735V198.102H369.782V206.824H367.239V198.102H357.395ZM384.471 196.953C384.498 191.799 385.961 187.52 388.518 183.855H391.197C389.311 186.562 387.506 192.072 387.506 196.953C387.506 201.848 389.311 207.357 391.197 210.078H388.518C385.961 206.4 384.498 202.121 384.471 196.953ZM401.347 183.145C405.039 183.172 407.759 185.428 407.773 188.641C407.759 191.867 405.039 194.109 401.347 194.109C397.615 194.109 394.908 191.867 394.894 188.641C394.908 185.428 397.615 183.172 401.347 183.145ZM397.437 188.641C397.423 190.664 399.091 192.004 401.347 192.004C403.589 192.004 405.257 190.664 405.257 188.641C405.257 186.645 403.589 185.305 401.347 185.332C399.091 185.305 397.423 186.645 397.437 188.641ZM398.613 197.992V195.914H414.718V202.094H401.211V204.445H415.539V206.523H398.695V200.152H412.148V197.992H398.613ZM412.121 194.793V182.324H414.718V194.793H412.121ZM426.728 196.953C426.7 202.121 425.238 206.4 422.681 210.078H420.001C421.888 207.357 423.693 201.848 423.693 196.953C423.693 192.072 421.888 186.562 420.001 183.855H422.681C425.238 187.52 426.7 191.799 426.728 196.953Z" fill="black"/>
<mask id="path-19-inside-6_412_85" fill="white">
<path d="M730 170H1430V220H730V170Z"/>
</mask>
<path d="M730 170H1430V220H730V170Z" fill="white"/>
<path d="M1430 220V219H730V220V221H1430V220Z" fill="#8438E4" mask="url(#path-19-inside-6_412_85)"/>
<path d="M1071.34 184.43C1074.98 184.457 1078.79 186.645 1078.8 193.891C1078.8 200.836 1075.81 204.773 1071.07 204.773C1067.42 204.773 1064.87 202.518 1064.39 199.305H1067.38C1067.79 200.973 1069.07 202.135 1071.07 202.148C1074.12 202.135 1075.91 199.482 1075.93 194.957H1075.69C1074.62 196.625 1072.76 197.637 1070.63 197.637C1067.07 197.637 1064.23 194.916 1064.23 191.129C1064.23 187.355 1067.03 184.402 1071.34 184.43ZM1067.16 191.074C1067.17 193.371 1068.88 195.189 1071.29 195.176C1073.68 195.189 1075.52 193.234 1075.52 191.047C1075.52 188.9 1073.76 186.945 1071.34 186.945C1068.95 186.945 1067.14 188.805 1067.16 191.074ZM1081.54 200.645V198.211L1090.29 184.703H1094.01V198.102H1096.71V200.645H1094.01V204.5H1091.16V200.645H1081.54ZM1084.71 198.102H1091.16V188.285H1090.95L1084.71 197.938V198.102Z" fill="black"/>
<mask id="path-22-inside-7_412_85" fill="white">
<path d="M30 220H730V270H30V220Z"/>
</mask>
<path d="M30 220H730V270H30V220Z" fill="white"/>
<path d="M730 270V271H731V270H730ZM730 220H729V270H730H731V220H730ZM730 270V269H30V270V271H730V270Z" fill="#8438E4" mask="url(#path-22-inside-7_412_85)"/>
<path d="M326.054 236.234C326.04 239.447 328.309 242.441 331.96 243.645L330.565 245.695C327.886 244.752 325.876 242.838 324.809 240.418C323.743 243.166 321.665 245.326 318.807 246.379L317.413 244.301C321.241 242.947 323.456 239.68 323.483 236.016V233.609H326.054V236.234ZM320.721 252.23C320.721 249.359 323.852 247.678 328.952 247.691C333.983 247.678 337.073 249.359 337.073 252.23C337.073 255.129 333.983 256.783 328.952 256.77C323.852 256.783 320.721 255.129 320.721 252.23ZM323.319 252.23C323.305 253.844 325.411 254.719 328.952 254.746C332.466 254.719 334.544 253.844 334.53 252.23C334.544 250.672 332.466 249.742 328.952 249.742C325.411 249.742 323.305 250.672 323.319 252.23ZM334.257 247.117V232.324H336.854V238.477H340.409V240.664H336.854V247.117H334.257ZM365.543 244.055V246.133H355.645V248.758H362.809V256.523H345.883V248.758H353.075V246.133H343.204V244.055H365.543ZM345.254 235.195V233.09H363.438V235.195H359.883V239.871H363.329V241.977H345.364V239.871H348.836V235.195H345.254ZM348.454 254.418H360.293V250.809H348.454V254.418ZM351.407 239.871H357.286V235.195H351.407V239.871ZM381.189 234.758V250.672H369.732V234.758H381.189ZM372.275 248.566H378.619V236.809H372.275V248.566ZM385.291 256.824V232.324H387.889V241.922H391.826V244.109H387.889V256.824H385.291ZM403.48 237.438C403.48 240.609 405.818 243.59 409.605 244.793L408.265 246.816C405.449 245.887 403.33 243.959 402.209 241.512C401.115 244.178 398.927 246.283 396.015 247.309L394.675 245.258C398.49 243.959 400.841 240.787 400.855 237.438V236.371H395.359V234.266H408.867V236.371H403.48V237.438ZM398.695 256.305V248.539H401.32V254.199H415.457V256.305H398.695ZM412.121 250.234V232.352H414.718V250.234H412.121ZM431.157 232.598C436.681 232.584 439.894 234.102 439.907 236.809C439.894 239.557 436.681 241.047 431.157 241.047C425.634 241.047 422.394 239.557 422.407 236.809C422.394 234.102 425.634 232.584 431.157 232.598ZM420.001 244.465V242.387H442.341V244.465H436.325V246.652H439.525V252.395H425.251V254.582H440.208V256.578H422.708V250.508H436.954V248.594H422.681V246.652H425.935V244.465H420.001ZM425.114 236.809C425.101 238.326 427.261 239.092 431.157 239.105C435.081 239.092 437.241 238.326 437.228 236.809C437.241 235.373 435.081 234.553 431.157 234.539C427.261 234.553 425.101 235.373 425.114 236.809ZM428.505 246.652H433.728V244.465H428.505V246.652Z" fill="black"/>
<mask id="path-25-inside-8_412_85" fill="white">
<path d="M730 220H1430V270H730V220Z"/>
</mask>
<path d="M730 220H1430V270H730V220Z" fill="white"/>
<path d="M1430 270V269H730V270V271H1430V270Z" fill="#8438E4" mask="url(#path-25-inside-8_412_85)"/>
<path d="M1059.61 254.773C1055.5 254.773 1052.59 252.572 1052.47 249.332H1055.53C1055.64 251.068 1057.36 252.176 1059.58 252.176C1061.97 252.176 1063.71 250.877 1063.71 248.949C1063.71 246.994 1062.08 245.6 1059.25 245.586H1057.55V243.125H1059.25C1061.51 243.139 1063.08 241.881 1063.08 239.98C1063.08 238.176 1061.72 236.945 1059.63 236.945C1057.65 236.945 1055.87 238.053 1055.8 239.844H1052.91C1052.99 236.617 1055.97 234.43 1059.66 234.43C1063.56 234.43 1066 236.891 1065.98 239.816C1066 242.072 1064.61 243.686 1062.48 244.219V244.355C1065.18 244.738 1066.76 246.557 1066.74 249.059C1066.76 252.354 1063.71 254.773 1059.61 254.773ZM1070.05 254.5V252.312L1076.91 245.395C1079.09 243.139 1080.17 241.881 1080.17 240.145C1080.17 238.189 1078.58 236.945 1076.5 236.945C1074.3 236.945 1072.91 238.34 1072.89 240.445H1070.05C1070.02 236.822 1072.79 234.43 1076.56 234.43C1080.37 234.43 1083.01 236.85 1083.04 240.062C1083.01 242.277 1081.97 244.041 1078.25 247.691L1074.23 251.766V251.93H1083.37V254.5H1070.05ZM1091.24 244.109C1088.54 244.137 1087.06 242.127 1087.09 239.188C1087.06 236.289 1088.6 234.279 1091.24 234.293C1093.96 234.279 1095.38 236.289 1095.4 239.188C1095.38 242.141 1093.91 244.137 1091.24 244.109ZM1089.33 254.5L1102.92 234.703H1105.41L1091.82 254.5H1089.33ZM1089.33 239.188C1089.34 241.006 1089.97 242.182 1091.24 242.195C1092.53 242.182 1093.13 241.006 1093.13 239.188C1093.13 237.41 1092.57 236.193 1091.24 236.207C1089.97 236.234 1089.34 237.424 1089.33 239.188ZM1099.58 249.988C1099.57 247.062 1101.1 245.053 1103.74 245.066C1106.45 245.053 1107.88 247.062 1107.89 249.988C1107.88 252.914 1106.4 254.91 1103.74 254.91C1101.04 254.91 1099.57 252.9 1099.58 249.988ZM1101.82 249.988C1101.84 251.779 1102.47 252.969 1103.74 252.969C1105.02 252.969 1105.62 251.779 1105.62 249.988C1105.62 248.184 1105.06 246.98 1103.74 246.98C1102.48 247.008 1101.84 248.197 1101.82 249.988Z" fill="black"/>
<mask id="path-28-inside-9_412_85" fill="white">
<path d="M30 270H730V320H30V270Z"/>
</mask>
<path d="M30 270H730V320H30V270Z" fill="#F2EDFF"/>
<path d="M730 320V324H731V320H730ZM730 270H729V320H730H731V270H730ZM730 320V316H30V320V324H730V320Z" fill="#8438E4" mask="url(#path-28-inside-9_412_85)"/>
<path d="M730 320V324H731V320H730ZM730 270H729V320H730H731V270H730ZM730 320V316H30V320V324H730V320Z" fill="black" fill-opacity="0.2" mask="url(#path-28-inside-9_412_85)"/>
<path d="M351.486 282.324V306.824H348.998V294.055H345.962V305.621H343.502V282.789H345.962V291.922H348.998V282.324H351.486ZM331.224 300.371V285.086H340.74V300.371H331.224ZM333.685 298.293H338.306V287.137H333.685V298.293ZM378.316 293.07V295.012H368.445V297.062H375.527V302.586H361.253V304.609H376.21V306.578H358.71V300.781H372.956V298.949H358.683V297.062H365.874V295.012H356.03V293.07H378.316ZM357.124 290.145C361.814 289.885 365.122 288.449 365.655 286.371H358.245V284.375H365.874V282.215H368.445V284.375H376.101V286.371H368.65C369.169 288.449 372.478 289.885 377.222 290.145L376.429 292.113C372.163 291.799 368.691 290.555 367.159 288.408C365.628 290.555 362.155 291.799 357.862 292.113L357.124 290.145ZM401.891 282.324V306.879H399.294V282.324H401.891ZM382.45 292.742C382.45 287.506 385.089 284.17 388.794 284.156C392.43 284.17 395.11 287.506 395.11 292.742C395.11 298.033 392.43 301.369 388.794 301.355C385.089 301.369 382.45 298.033 382.45 292.742ZM384.966 292.742C384.952 296.639 386.511 299.031 388.794 299.031C391.036 299.031 392.595 296.639 392.595 292.742C392.595 288.9 391.036 286.494 388.794 286.48C386.511 286.494 384.952 288.9 384.966 292.742ZM427.518 298.102V306.824H424.92V300.207H410.92V298.102H427.518ZM407.694 289.598C407.707 286.166 410.469 283.746 414.229 283.746C417.975 283.746 420.737 286.166 420.737 289.598C420.737 293.057 417.975 295.449 414.229 295.449C410.469 295.449 407.707 293.057 407.694 289.598ZM410.237 289.598C410.223 291.799 411.905 293.262 414.229 293.234C416.526 293.262 418.194 291.799 418.194 289.598C418.194 287.41 416.526 285.975 414.229 285.961C411.905 285.975 410.223 287.41 410.237 289.598ZM424.92 296.844V282.324H427.518V296.844H424.92Z" fill="black"/>
<mask id="path-31-inside-10_412_85" fill="white">
<path d="M730 270H1430V320H730V270Z"/>
</mask>
<path d="M730 270H1430V320H730V270Z" fill="#F2EDFF"/>
<path d="M1430 320V316H730V320V324H1430V320Z" fill="#8438E4" mask="url(#path-31-inside-10_412_85)"/>
<path d="M1430 320V316H730V320V324H1430V320Z" fill="black" fill-opacity="0.2" mask="url(#path-31-inside-10_412_85)"/>
<path d="M1023.42 304.773C1019.67 304.773 1016.86 302.49 1016.72 299.332H1019.64C1019.81 301.014 1021.42 302.244 1023.42 302.258C1025.82 302.244 1027.55 300.508 1027.55 298.156C1027.55 295.75 1025.77 294 1023.28 293.973C1021.7 293.973 1020.48 294.506 1019.81 295.723H1016.96L1018.25 284.703H1029.46V287.273H1020.74L1020.08 292.824H1020.27C1021.09 292.031 1022.49 291.498 1023.99 291.484C1027.72 291.498 1030.47 294.26 1030.47 298.074C1030.47 301.971 1027.55 304.773 1023.42 304.773ZM1036.52 302.613L1034.33 310.16H1032L1033.45 302.613H1036.52ZM1040.62 304.5L1049.45 287.438V287.273H1039.25V284.703H1052.57V287.383L1043.76 304.5H1040.62ZM1062.33 304.773C1058.66 304.746 1054.84 302.572 1054.84 295.258C1054.85 288.367 1057.83 284.43 1062.57 284.43C1066.22 284.43 1068.75 286.699 1069.22 289.844H1066.24C1065.84 288.23 1064.57 287.068 1062.57 287.055C1059.51 287.068 1057.73 289.721 1057.73 294.191H1057.95C1059.03 292.51 1060.89 291.525 1063.04 291.512C1066.57 291.525 1069.41 294.232 1069.41 298.02C1069.41 301.861 1066.58 304.801 1062.33 304.773ZM1058.09 298.102C1058.1 300.303 1059.87 302.244 1062.3 302.258C1064.69 302.244 1066.48 300.385 1066.48 298.074C1066.48 295.805 1064.76 293.959 1062.38 293.973C1059.96 293.959 1058.12 295.9 1058.09 298.102ZM1079.5 304.773C1074.92 304.773 1072.23 301.082 1072.23 294.602C1072.23 288.162 1074.95 284.43 1079.5 284.43C1084.04 284.43 1086.76 288.162 1086.77 294.602C1086.76 301.082 1084.08 304.773 1079.5 304.773ZM1075.23 294.602C1075.22 299.537 1076.82 302.176 1079.5 302.176C1082.17 302.176 1083.77 299.537 1083.77 294.602C1083.77 289.68 1082.15 286.986 1079.5 286.973C1076.83 286.986 1075.23 289.68 1075.23 294.602ZM1092.71 302.613L1090.52 310.16H1088.2L1089.64 302.613H1092.71ZM1102.8 304.773C1098.22 304.773 1095.52 301.082 1095.52 294.602C1095.52 288.162 1098.24 284.43 1102.8 284.43C1107.34 284.43 1110.06 288.162 1110.07 294.602C1110.06 301.082 1107.38 304.773 1102.8 304.773ZM1098.53 294.602C1098.52 299.537 1100.12 302.176 1102.8 302.176C1105.46 302.176 1107.06 299.537 1107.06 294.602C1107.06 289.68 1105.45 286.986 1102.8 286.973C1100.13 286.986 1098.53 289.68 1098.53 294.602ZM1120.08 304.773C1115.5 304.773 1112.8 301.082 1112.8 294.602C1112.8 288.162 1115.53 284.43 1120.08 284.43C1124.62 284.43 1127.34 288.162 1127.35 294.602C1127.34 301.082 1124.66 304.773 1120.08 304.773ZM1115.81 294.602C1115.8 299.537 1117.4 302.176 1120.08 302.176C1122.74 302.176 1124.34 299.537 1124.34 294.602C1124.34 289.68 1122.73 286.986 1120.08 286.973C1117.41 286.986 1115.81 289.68 1115.81 294.602ZM1137.36 304.773C1132.78 304.773 1130.09 301.082 1130.09 294.602C1130.09 288.162 1132.81 284.43 1137.36 284.43C1141.9 284.43 1144.62 288.162 1144.63 294.602C1144.62 301.082 1141.94 304.773 1137.36 304.773ZM1133.09 294.602C1133.08 299.537 1134.68 302.176 1137.36 302.176C1140.03 302.176 1141.62 299.537 1141.62 294.602C1141.62 289.68 1140.01 286.986 1137.36 286.973C1134.69 286.986 1133.09 289.68 1133.09 294.602Z" fill="black"/>
<mask id="path-34-inside-11_412_85" fill="white">
<path d="M30 320H730V370H30V320Z"/>
</mask>
<path d="M30 320H730V370H30V320Z" fill="white"/>
<path d="M730 370V371H731V370H730ZM730 320H729V370H730H731V320H730ZM730 370V369H30V370V371H730V370Z" fill="#8438E4" mask="url(#path-34-inside-11_412_85)"/>
<path d="M363.52 332.352V346.297H360.922V332.352H363.52ZM343.696 339.379C343.709 335.92 346.471 333.568 350.231 333.582C353.977 333.568 356.739 335.92 356.739 339.379C356.739 342.742 353.977 345.121 350.231 345.121C346.471 345.121 343.709 342.742 343.696 339.379ZM346.239 339.379C346.225 341.484 347.907 342.934 350.231 342.934C352.528 342.934 354.196 341.484 354.196 339.379C354.196 337.205 352.528 335.756 350.231 335.77C347.907 335.756 346.225 337.205 346.239 339.379ZM347.414 356.523V347.527H363.52V356.523H347.414ZM349.985 354.418H360.977V349.605H349.985V354.418ZM389.83 332.324V356.824H387.342V344.164H384.17V355.566H381.791V332.816H384.17V342.031H387.342V332.324H389.83ZM369.623 350.945V335.277H378.811V337.383H372.221V348.73C375.229 348.717 377.498 348.58 380.123 348.074L380.314 350.207C377.375 350.822 374.832 350.918 371.264 350.945H369.623ZM416.824 351.711V353.898H394.402V351.711H400.527V347.391H397.136V339.598H411.519V336.18H397.082V334.047H414.089V341.703H399.707V345.258H414.664V347.391H410.945V351.711H416.824ZM403.043 351.711H408.402V347.391H403.043V351.711Z" fill="black"/>
<mask id="path-37-inside-12_412_85" fill="white">
<path d="M730 320H1430V370H730V320Z"/>
</mask>
<path d="M730 320H1430V370H730V320Z" fill="white"/>
<path d="M1430 370V369H730V370V371H1430V370Z" fill="#8438E4" mask="url(#path-37-inside-12_412_85)"/>
<mask id="path-39-inside-13_412_85" fill="white">
<path d="M30 370H730V420H30V370Z"/>
</mask>
<path d="M30 370H730V420H30V370Z" fill="white"/>
<path d="M730 420V421H731V420H730ZM730 370H729V420H730H731V370H730ZM730 420V419H30V420V421H730V420Z" fill="#8438E4" mask="url(#path-39-inside-13_412_85)"/>
<path d="M344.048 384.184V385.551C344.021 387.191 344.021 389.625 343.42 392.797L340.849 392.551C341.382 389.844 341.464 387.861 341.492 386.316H331.689V384.184H344.048ZM330.212 394.902C331.716 394.902 333.425 394.889 335.216 394.848V389.68H337.787V394.766C340.412 394.656 343.119 394.465 345.58 394.109L345.744 395.996C340.63 396.898 334.779 396.994 330.459 397.008L330.212 394.902ZM333.931 406.305V399.059H336.529V404.199H350.584V406.305H333.931ZM347.138 400.727V382.324H349.791V390.117H353.154V392.305H349.791V400.727H347.138ZM376.347 382.324V406.879H373.749V382.324H376.347ZM357.37 386.645V384.539H368.855V393.48H360.05V398.84C364.029 398.826 367.487 398.635 371.589 397.965L371.835 400.098C367.501 400.822 363.81 400.986 359.476 401H357.398V391.402H366.202V386.645H357.37ZM401.891 382.324V406.879H399.294V382.324H401.891ZM382.97 401V384.375H385.567V390.664H392.157V384.375H394.727V401H382.97ZM385.567 398.867H392.157V392.715H385.567V398.867ZM429.541 394.273V396.379H407.202V394.273H412.561V390.979C410.661 390.213 409.594 388.982 409.608 387.355C409.594 384.443 412.971 382.748 418.358 382.762C423.731 382.748 427.094 384.443 427.108 387.355C427.094 388.982 426.028 390.213 424.127 390.992V394.273H429.541ZM409.854 402.395C409.854 399.592 413.026 398.047 418.358 398.047C423.621 398.047 426.793 399.592 426.807 402.395C426.793 405.225 423.621 406.77 418.358 406.77C413.026 406.77 409.854 405.225 409.854 402.395ZM412.287 387.355C412.274 388.996 414.543 389.912 418.358 389.926C422.145 389.912 424.442 388.996 424.428 387.355C424.442 385.715 422.145 384.771 418.358 384.758C414.543 384.771 412.274 385.715 412.287 387.355ZM412.479 402.395C412.465 403.926 414.612 404.801 418.358 404.773C422.049 404.801 424.209 403.926 424.209 402.395C424.209 400.891 422.049 400.043 418.358 400.043C414.612 400.043 412.465 400.891 412.479 402.395ZM415.186 394.273H421.557V391.662C420.6 391.812 419.52 391.895 418.358 391.895C417.209 391.895 416.143 391.812 415.186 391.676V394.273Z" fill="black"/>
<mask id="path-42-inside-14_412_85" fill="white">
<path d="M730 370H1430V420H730V370Z"/>
</mask>
<path d="M730 370H1430V420H730V370Z" fill="white"/>
<path d="M1430 420V419H730V420V421H1430V420Z" fill="#8438E4" mask="url(#path-42-inside-14_412_85)"/>
<path d="M1015.72 404.5V402.312L1022.59 395.395C1024.76 393.139 1025.84 391.881 1025.84 390.145C1025.84 388.189 1024.25 386.945 1022.18 386.945C1019.97 386.945 1018.58 388.34 1018.57 390.445H1015.72C1015.7 386.822 1018.46 384.43 1022.23 384.43C1026.04 384.43 1028.68 386.85 1028.71 390.062C1028.68 392.277 1027.64 394.041 1023.93 397.691L1019.91 401.766V401.93H1029.04V404.5H1015.72ZM1035.93 402.613L1033.74 410.16H1031.42L1032.87 402.613H1035.93ZM1046.18 404.773C1042.08 404.773 1039.17 402.572 1039.05 399.332H1042.11C1042.22 401.068 1043.94 402.176 1046.16 402.176C1048.55 402.176 1050.29 400.877 1050.29 398.949C1050.29 396.994 1048.66 395.6 1045.83 395.586H1044.13V393.125H1045.83C1048.08 393.139 1049.66 391.881 1049.66 389.98C1049.66 388.176 1048.3 386.945 1046.21 386.945C1044.23 386.945 1042.45 388.053 1042.38 389.844H1039.48C1039.57 386.617 1042.55 384.43 1046.24 384.43C1050.13 384.43 1052.58 386.891 1052.55 389.816C1052.58 392.072 1051.19 393.686 1049.05 394.219V394.355C1051.76 394.738 1053.33 396.557 1053.32 399.059C1053.33 402.354 1050.29 404.773 1046.18 404.773ZM1063.36 404.773C1059.61 404.773 1056.79 402.49 1056.66 399.332H1059.58C1059.75 401.014 1061.36 402.244 1063.36 402.258C1065.76 402.244 1067.48 400.508 1067.48 398.156C1067.48 395.75 1065.71 394 1063.22 393.973C1061.63 393.973 1060.42 394.506 1059.75 395.723H1056.9L1058.19 384.703H1069.4V387.273H1060.68L1060.02 392.824H1060.21C1061.03 392.031 1062.43 391.498 1063.93 391.484C1067.66 391.498 1070.41 394.26 1070.41 398.074C1070.41 401.971 1067.48 404.773 1063.36 404.773ZM1080.5 404.773C1075.92 404.773 1073.23 401.082 1073.23 394.602C1073.23 388.162 1075.95 384.43 1080.5 384.43C1085.04 384.43 1087.76 388.162 1087.77 394.602C1087.76 401.082 1085.08 404.773 1080.5 404.773ZM1076.23 394.602C1076.22 399.537 1077.82 402.176 1080.5 402.176C1083.17 402.176 1084.77 399.537 1084.77 394.602C1084.77 389.68 1083.15 386.986 1080.5 386.973C1077.83 386.986 1076.23 389.68 1076.23 394.602ZM1093.71 402.613L1091.52 410.16H1089.2L1090.64 402.613H1093.71ZM1103.8 404.773C1099.22 404.773 1096.52 401.082 1096.52 394.602C1096.52 388.162 1099.24 384.43 1103.8 384.43C1108.34 384.43 1111.06 388.162 1111.07 394.602C1111.06 401.082 1108.38 404.773 1103.8 404.773ZM1099.53 394.602C1099.52 399.537 1101.12 402.176 1103.8 402.176C1106.46 402.176 1108.06 399.537 1108.06 394.602C1108.06 389.68 1106.45 386.986 1103.8 386.973C1101.13 386.986 1099.53 389.68 1099.53 394.602ZM1121.08 404.773C1116.5 404.773 1113.8 401.082 1113.8 394.602C1113.8 388.162 1116.53 384.43 1121.08 384.43C1125.62 384.43 1128.34 388.162 1128.35 394.602C1128.34 401.082 1125.66 404.773 1121.08 404.773ZM1116.81 394.602C1116.8 399.537 1118.4 402.176 1121.08 402.176C1123.74 402.176 1125.34 399.537 1125.34 394.602C1125.34 389.68 1123.73 386.986 1121.08 386.973C1118.41 386.986 1116.81 389.68 1116.81 394.602ZM1138.36 404.773C1133.78 404.773 1131.09 401.082 1131.09 394.602C1131.09 388.162 1133.81 384.43 1138.36 384.43C1142.9 384.43 1145.62 388.162 1145.63 394.602C1145.62 401.082 1142.94 404.773 1138.36 404.773ZM1134.09 394.602C1134.08 399.537 1135.68 402.176 1138.36 402.176C1141.03 402.176 1142.62 399.537 1142.62 394.602C1142.62 389.68 1141.01 386.986 1138.36 386.973C1135.69 386.986 1134.09 389.68 1134.09 394.602Z" fill="black"/>
<mask id="path-45-inside-15_412_85" fill="white">
<path d="M30 420H730V470H30V420Z"/>
</mask>
<path d="M30 420H730V470H30V420Z" fill="#F2EDFF"/>
<path d="M730 420H729V470H730H731V420H730Z" fill="#8438E4" mask="url(#path-45-inside-15_412_85)"/>
<path d="M339.427 439.543C339.414 443.645 342.107 447.883 345.88 449.496L344.459 451.52C341.574 450.248 339.277 447.541 338.142 444.273C337.007 447.773 334.711 450.754 331.853 452.148L330.349 450.098C334.041 448.361 336.775 443.768 336.802 439.543V436.945H331.197V434.785H345.005V436.945H339.427V439.543ZM348.095 456.824V432.324H350.693V456.824H348.095ZM378.316 443.07V445.012H368.445V447.062H375.527V452.586H361.253V454.609H376.21V456.578H358.71V450.781H372.956V448.949H358.683V447.062H365.874V445.012H356.03V443.07H378.316ZM357.124 440.145C361.814 439.885 365.122 438.449 365.655 436.371H358.245V434.375H365.874V432.215H368.445V434.375H376.101V436.371H368.65C369.169 438.449 372.478 439.885 377.222 440.145L376.429 442.113C372.163 441.799 368.691 440.555 367.159 438.408C365.628 440.555 362.155 441.799 357.862 442.113L357.124 440.145ZM400.852 432.324V438.477H404.407V440.664H400.852V446.598H398.255V432.324H400.852ZM381.63 436.809V434.73H387.645V432.105H390.243V434.73H396.231V436.809H381.63ZM382.97 442.113C382.956 439.502 385.362 437.807 388.93 437.82C392.458 437.807 394.864 439.502 394.864 442.113C394.864 444.725 392.458 446.434 388.93 446.406C385.362 446.434 382.956 444.725 382.97 442.113ZM385.184 456.523V447.609H387.755V449.988H398.255V447.609H400.852V456.523H385.184ZM385.485 442.113C385.458 443.576 386.852 444.479 388.93 444.492C391.009 444.479 392.403 443.576 392.43 442.113C392.403 440.678 391.009 439.748 388.93 439.762C386.852 439.748 385.458 440.678 385.485 442.113ZM387.755 454.445H398.255V452.012H387.755V454.445ZM428.256 432.324V456.824H425.795V432.324H428.256ZM407.065 449.742C412.274 446.652 414.762 442.537 415.213 437.492H408.268V435.359H417.784C417.784 436.617 417.688 437.834 417.496 439.023H420.791V432.953H423.252V455.621H420.791V447.281H416.608V445.148H420.791V441.156H417.018C415.828 445.271 413.217 448.854 408.596 451.602L407.065 449.742Z" fill="black"/>
<rect width="700" height="50" transform="translate(730 420)" fill="#F2EDFF"/>
<path d="M1015.72 454.5V452.312L1022.59 445.395C1024.76 443.139 1025.84 441.881 1025.84 440.145C1025.84 438.189 1024.25 436.945 1022.18 436.945C1019.97 436.945 1018.58 438.34 1018.57 440.445H1015.72C1015.7 436.822 1018.46 434.43 1022.23 434.43C1026.04 434.43 1028.68 436.85 1028.71 440.062C1028.68 442.277 1027.64 444.041 1023.93 447.691L1019.91 451.766V451.93H1029.04V454.5H1015.72ZM1035.93 452.613L1033.74 460.16H1031.42L1032.87 452.613H1035.93ZM1046.18 454.773C1042.08 454.773 1039.17 452.572 1039.05 449.332H1042.11C1042.22 451.068 1043.94 452.176 1046.16 452.176C1048.55 452.176 1050.29 450.877 1050.29 448.949C1050.29 446.994 1048.66 445.6 1045.83 445.586H1044.13V443.125H1045.83C1048.08 443.139 1049.66 441.881 1049.66 439.98C1049.66 438.176 1048.3 436.945 1046.21 436.945C1044.23 436.945 1042.45 438.053 1042.38 439.844H1039.48C1039.57 436.617 1042.55 434.43 1046.24 434.43C1050.13 434.43 1052.58 436.891 1052.55 439.816C1052.58 442.072 1051.19 443.686 1049.05 444.219V444.355C1051.76 444.738 1053.33 446.557 1053.32 449.059C1053.33 452.354 1050.29 454.773 1046.18 454.773ZM1063.36 454.773C1059.61 454.773 1056.79 452.49 1056.66 449.332H1059.58C1059.75 451.014 1061.36 452.244 1063.36 452.258C1065.76 452.244 1067.48 450.508 1067.48 448.156C1067.48 445.75 1065.71 444 1063.22 443.973C1061.63 443.973 1060.42 444.506 1059.75 445.723H1056.9L1058.19 434.703H1069.4V437.273H1060.68L1060.02 442.824H1060.21C1061.03 442.031 1062.43 441.498 1063.93 441.484C1067.66 441.498 1070.41 444.26 1070.41 448.074C1070.41 451.971 1067.48 454.773 1063.36 454.773ZM1080.5 454.773C1075.92 454.773 1073.23 451.082 1073.23 444.602C1073.23 438.162 1075.95 434.43 1080.5 434.43C1085.04 434.43 1087.76 438.162 1087.77 444.602C1087.76 451.082 1085.08 454.773 1080.5 454.773ZM1076.23 444.602C1076.22 449.537 1077.82 452.176 1080.5 452.176C1083.17 452.176 1084.77 449.537 1084.77 444.602C1084.77 439.68 1083.15 436.986 1080.5 436.973C1077.83 436.986 1076.23 439.68 1076.23 444.602ZM1093.71 452.613L1091.52 460.16H1089.2L1090.64 452.613H1093.71ZM1103.8 454.773C1099.22 454.773 1096.52 451.082 1096.52 444.602C1096.52 438.162 1099.24 434.43 1103.8 434.43C1108.34 434.43 1111.06 438.162 1111.07 444.602C1111.06 451.082 1108.38 454.773 1103.8 454.773ZM1099.53 444.602C1099.52 449.537 1101.12 452.176 1103.8 452.176C1106.46 452.176 1108.06 449.537 1108.06 444.602C1108.06 439.68 1106.45 436.986 1103.8 436.973C1101.13 436.986 1099.53 439.68 1099.53 444.602ZM1121.08 454.773C1116.5 454.773 1113.8 451.082 1113.8 444.602C1113.8 438.162 1116.53 434.43 1121.08 434.43C1125.62 434.43 1128.34 438.162 1128.35 444.602C1128.34 451.082 1125.66 454.773 1121.08 454.773ZM1116.81 444.602C1116.8 449.537 1118.4 452.176 1121.08 452.176C1123.74 452.176 1125.34 449.537 1125.34 444.602C1125.34 439.68 1123.73 436.986 1121.08 436.973C1118.41 436.986 1116.81 439.68 1116.81 444.602ZM1138.36 454.773C1133.78 454.773 1131.09 451.082 1131.09 444.602C1131.09 438.162 1133.81 434.43 1138.36 434.43C1142.9 434.43 1145.62 438.162 1145.63 444.602C1145.62 451.082 1142.94 454.773 1138.36 454.773ZM1134.09 444.602C1134.08 449.537 1135.68 452.176 1138.36 452.176C1141.03 452.176 1142.62 449.537 1142.62 444.602C1142.62 439.68 1141.01 436.986 1138.36 436.973C1135.69 436.986 1134.09 439.68 1134.09 444.602Z" fill="black"/>
<mask id="path-49-inside-16_412_85" fill="white">
<path d="M30 470H730V540H30V470Z"/>
</mask>
<path d="M30 470H730V540H30V470Z" fill="#8438E4"/>
<path d="M730 470H729V540H730H731V470H730Z" fill="#A788F7" mask="url(#path-49-inside-16_412_85)"/>
<path d="M351.102 490.043C351.085 493.242 353.563 497.355 361.684 498.41L359.575 502.84C353.932 502.049 350.223 499.729 348.184 496.688C346.11 499.781 342.384 502.137 336.723 502.945L334.719 498.551C342.735 497.426 345.249 493.365 345.266 490.043V489.305H351.102V490.043ZM333.348 508.535V504.07H363.02V508.535H351.454V513.457H345.864V508.535H333.348ZM336.583 520.523V510.891H342.208V516.023H359.786V520.523H336.583ZM383.006 490.711C383.006 494.068 385.607 498.498 394.045 499.5L391.865 504C385.959 503.227 382.109 500.766 380.018 497.549C377.908 500.748 374.094 503.227 368.275 504L366.096 499.5C374.445 498.498 377.047 494.033 377.064 490.711V489.305H383.006V490.711ZM365.182 510.328V505.758H394.854V510.328H382.689V520.98H377.1V510.328H365.182ZM424.437 508.746V520.98H418.777V513.211H401.831V508.746H424.437ZM397.366 498.234C397.331 493.576 401.304 490.148 406.472 490.148C411.605 490.148 415.595 493.576 415.577 498.234C415.595 502.998 411.605 506.373 406.472 506.391C401.304 506.373 397.331 502.998 397.366 498.234ZM402.851 498.234C402.833 500.52 404.345 501.609 406.472 501.609C408.511 501.609 409.988 500.52 409.988 498.234C409.988 496.037 408.511 494.965 406.472 494.965C404.345 494.965 402.833 496.037 402.851 498.234ZM418.777 507.41V488.461H424.437V507.41H418.777Z" fill="white"/>
<rect width="700" height="70" transform="translate(730 470)" fill="#8438E4"/>
<path d="M998.807 517.852C992.848 517.852 988.594 514.529 988.541 509.836H995.291C995.344 511.348 996.803 512.438 998.842 512.438C1000.86 512.438 1002.25 511.295 1002.25 509.66C1002.25 508.043 1000.65 506.9 998.314 506.883H995.748V502.242H998.314C1000.44 502.242 1001.92 501.1 1001.9 499.5C1001.92 497.953 1000.67 496.863 998.877 496.863C996.926 496.863 995.502 497.988 995.467 499.57H989.068C989.086 494.947 993.164 491.695 998.877 491.695C1004.47 491.695 1008.39 494.824 1008.37 499.078C1008.39 501.926 1006.21 503.877 1003.2 504.211V504.422C1007.24 504.879 1009.34 507.094 1009.32 510.223C1009.34 514.688 1004.98 517.852 998.807 517.852ZM1018.6 514.758L1015.33 525.059H1010.87L1012.48 514.758H1018.6ZM1022.57 513.457V508.254L1032.87 492.047H1041.35V508.219H1044.3V513.457H1041.35V517.5H1034.95V513.457H1022.57ZM1029.18 508.219H1035.09V499.008H1034.88L1029.18 508.043V508.219ZM1059.21 492.047V517.5H1052.49V498.234H1052.35L1046.72 501.609V495.879L1053.02 492.047H1059.21ZM1075.41 517.852C1068.56 517.852 1064.32 513.123 1064.3 504.773C1064.32 496.406 1068.56 491.695 1075.41 491.695C1082.27 491.695 1086.52 496.441 1086.52 504.773C1086.52 513.158 1082.27 517.852 1075.41 517.852ZM1071.23 504.773C1071.21 510.17 1072.95 512.455 1075.41 512.473C1077.87 512.455 1079.61 510.17 1079.6 504.773C1079.58 499.482 1077.87 497.092 1075.41 497.074C1072.95 497.092 1071.26 499.482 1071.23 504.773ZM1095.49 514.758L1092.22 525.059H1087.75L1089.37 514.758H1095.49ZM1109.51 517.852C1102.66 517.852 1098.42 513.123 1098.4 504.773C1098.42 496.406 1102.66 491.695 1109.51 491.695C1116.37 491.695 1120.62 496.441 1120.62 504.773C1120.62 513.158 1116.37 517.852 1109.51 517.852ZM1105.33 504.773C1105.31 510.17 1107.05 512.455 1109.51 512.473C1111.97 512.455 1113.71 510.17 1113.7 504.773C1113.68 499.482 1111.97 497.092 1109.51 497.074C1107.05 497.092 1105.37 499.482 1105.33 504.773ZM1134.83 517.852C1127.97 517.852 1123.73 513.123 1123.72 504.773C1123.73 496.406 1127.97 491.695 1134.83 491.695C1141.68 491.695 1145.94 496.441 1145.94 504.773C1145.94 513.158 1141.68 517.852 1134.83 517.852ZM1130.64 504.773C1130.62 510.17 1132.37 512.455 1134.83 512.473C1137.29 512.455 1139.03 510.17 1139.01 504.773C1138.99 499.482 1137.29 497.092 1134.83 497.074C1132.37 497.092 1130.68 499.482 1130.64 504.773ZM1160.14 517.852C1153.28 517.852 1149.05 513.123 1149.03 504.773C1149.05 496.406 1153.28 491.695 1160.14 491.695C1166.99 491.695 1171.25 496.441 1171.25 504.773C1171.25 513.158 1166.99 517.852 1160.14 517.852ZM1155.96 504.773C1155.94 510.17 1157.68 512.455 1160.14 512.473C1162.6 512.455 1164.34 510.17 1164.32 504.773C1164.3 499.482 1162.6 497.092 1160.14 497.074C1157.68 497.092 1155.99 499.482 1155.96 504.773Z" fill="#FFF700"/>
</svg>
