<svg width="100" height="100" viewBox="0 0 100 100" fill="none" xmlns="http://www.w3.org/2000/svg">
<circle cx="50" cy="50" r="50" fill="#FAE100"/>
<path d="M33.2167 77.0742C33.2099 80.8066 32.1913 84.0127 27.6386 86.2754L26.8046 85.127C28.9443 84.0742 30.2226 82.8369 30.9404 81.374L27.0917 81.7363L26.9003 80.4238L31.3984 80.1436C31.5556 79.5625 31.6581 78.9541 31.706 78.3047H27.5429V77.0742H33.2167ZM34.953 88.1895V75.8574H36.4706V80.6973H38.3027V81.9414H36.4706V88.1895H34.953ZM45.5963 77.0742C45.5895 80.8066 44.5709 84.0127 40.0182 86.2754L39.1842 85.127C41.3239 84.0742 42.6022 82.8369 43.32 81.374L39.4713 81.7363L39.2799 80.4238L43.778 80.1436C43.9352 79.5625 44.0377 78.9541 44.0856 78.3047H39.9225V77.0742H45.5963ZM47.3327 88.1895V75.8574H48.8502V80.6973H50.6823V81.9414H48.8502V88.1895H47.3327ZM57.1693 76.5547C59.8216 76.5615 61.7836 77.8809 61.7767 79.8906C61.7836 81.7432 60.1908 82.9805 57.9212 83.2061V85.4688H62.8431V86.7129H51.5502V85.4688H56.4173V83.2061C54.1752 82.9805 52.5824 81.7432 52.5892 79.8906C52.5824 77.8809 54.5375 76.5615 57.1693 76.5547ZM54.0795 79.8906C54.0726 81.2236 55.3646 82.0234 57.1693 82.0234C59.0013 82.0234 60.2865 81.2236 60.2865 79.8906C60.2865 78.5986 59.0013 77.7783 57.1693 77.7852C55.3646 77.7783 54.0726 78.5986 54.0795 79.8906ZM75.1954 82.4473V83.6504H63.9024V82.4473H68.7833V81.4082H65.3516V76.1582H73.8419V77.3477H66.8692V78.1953H73.5411V79.3301H66.8692V80.2461H73.9376V81.4082H70.3009V82.4473H75.1954ZM65.1739 85.7285V84.5254H73.7735V88.2168H72.2423V85.7285H65.1739Z" fill="black"/>
<path d="M51.0274 19C35.0349 19 22 29.2417 22 41.9481C22 50.1634 27.4769 57.3928 35.7469 61.4457C35.1445 63.6912 33.5562 69.661 33.2276 70.9207C32.8442 72.509 33.83 72.4542 34.4325 72.0708C34.9254 71.7422 42.3739 66.6487 45.6053 64.5127C47.3579 64.7866 49.1653 64.8961 50.9726 64.8961C66.9651 64.8961 80 54.6544 80 41.9481C80 29.2417 67.0198 19 51.0274 19Z" fill="#371D1E"/>
<path d="M30.7631 37.6761H33.7753C33.7753 37.6761 33.7753 45.8914 33.7753 47.8083C33.7753 49.1775 36.8971 49.2323 36.8971 47.8083V37.7856C36.8971 37.7856 37.883 37.7856 39.8547 37.7856C41.7168 37.7856 41.7168 34.8829 39.8547 34.8829C37.7734 34.8829 30.7631 34.8281 30.7631 34.8281C29.0105 34.8281 29.0105 37.6761 30.7631 37.6761Z" fill="#FAE100"/>
<mask id="mask0_280_244" style="mask-type:luminance" maskUnits="userSpaceOnUse" x="29" y="34" width="13" height="15">
<path d="M30.7631 37.6761H33.7753C33.7753 37.6761 33.7753 45.8914 33.7753 47.8083C33.7753 49.1775 36.8971 49.2323 36.8971 47.8083V37.7856C36.8971 37.7856 37.883 37.7856 39.8547 37.7856C41.7168 37.7856 41.7168 34.8829 39.8547 34.8829C37.7734 34.8829 30.7631 34.8281 30.7631 34.8281C29.0105 34.8281 29.0105 37.6761 30.7631 37.6761Z" fill="white"/>
</mask>
<g mask="url(#mask0_280_244)">
<path d="M41.7167 34.8281H29.0104V49.2323H41.7167V34.8281Z" fill="#FAE100"/>
</g>
<mask id="mask1_280_244" style="mask-type:luminance" maskUnits="userSpaceOnUse" x="38" y="34" width="14" height="15">
<path d="M45.0576 38.2237L46.7007 43.4267H43.2503L45.0576 38.2237ZM43.1955 35.8139C42.4835 37.457 39.7998 45.0698 38.9235 47.0962C38.2663 48.575 41.0595 49.7799 41.662 48.3012L42.2644 46.2199H47.7413C47.7413 46.2199 47.577 46.3295 48.289 48.2464C48.8914 49.7799 51.7394 48.7393 51.1369 47.151C50.3154 44.9603 47.4127 36.964 46.865 35.8139C46.6459 35.2662 45.7696 34.9376 44.8933 34.9376C44.1813 34.8828 43.4693 35.1567 43.1955 35.8139Z" fill="white"/>
</mask>
<g mask="url(#mask1_280_244)">
<path d="M51.6847 34.8829H38.2664V49.7252H51.6847V34.8829Z" fill="#FAE100"/>
</g>
<mask id="mask2_280_244" style="mask-type:luminance" maskUnits="userSpaceOnUse" x="52" y="34" width="9" height="15">
<path d="M52.1775 36.2521C52.1775 38.8262 52.1775 47.2058 52.1775 47.2058C52.1775 47.2058 51.9585 48.8489 53.3824 48.8489C54.8064 48.8489 57.983 48.8489 59.3522 48.8489C60.7762 48.8489 60.7214 45.8366 59.3522 45.8366C57.9282 45.8366 55.4089 45.8366 55.4089 45.8366C55.4089 45.8366 55.4089 38.1142 55.4089 36.1973C55.4089 35.2663 54.5874 34.8281 53.8206 34.8281C52.9443 34.8829 52.1775 35.3758 52.1775 36.2521Z" fill="white"/>
</mask>
<g mask="url(#mask2_280_244)">
<path d="M60.7213 34.8829H51.9036V48.9037H60.7213V34.8829Z" fill="#FAE100"/>
</g>
<mask id="mask3_280_244" style="mask-type:luminance" maskUnits="userSpaceOnUse" x="61" y="34" width="11" height="15">
<path d="M61.1048 35.8688C61.1596 37.0189 61.05 47.3154 61.05 48.0822C61.05 49.2871 64.1171 49.2871 64.1171 48.0822C64.1171 46.6582 64.1171 44.0293 64.1171 44.0293L64.9934 43.3173L68.9915 48.6299C69.813 49.6705 72.2776 47.8083 71.5109 46.713L67.3484 41.1813C67.3484 41.1813 70.1964 38.1143 71.2918 37.0189C71.949 36.3617 69.9226 34.3352 69.2653 34.9925C68.6081 35.5949 64.1719 40.086 64.1719 40.086C64.1719 40.086 64.2266 37.2928 64.1719 35.7592C64.1719 35.1568 63.4599 34.8829 62.6931 34.8829C61.9263 34.8829 61.1048 35.2115 61.1048 35.8688Z" fill="white"/>
</mask>
<g mask="url(#mask3_280_244)">
<path d="M72.3324 34.39H61.1049V49.7252H72.3324V34.39Z" fill="#FAE100"/>
</g>
</svg>
