<svg width="100" height="100" viewBox="0 0 100 100" fill="none" xmlns="http://www.w3.org/2000/svg">
<circle cx="50" cy="50" r="50" fill="#8438E4"/>
<path d="M36.9218 72.8574V77.5059H38.3027V78.791H36.9218V85.2168H35.4179V72.8574H36.9218ZM26.9413 82.3047V73.9922H28.1991V76.959H29.2382V73.9922H30.496V82.3047H26.9413ZM28.1991 81.0605H29.2382V78.1621H28.1991V81.0605ZM31.0566 82.3047V73.9922H32.287V76.959H33.3261V73.9922H34.5839V82.3047H31.0566ZM32.287 81.0605H33.3261V78.1621H32.287V81.0605ZM50.4498 79.5977V80.8145H39.1569V79.5977H50.4498ZM40.5514 74.375V73.1855H49.0553V76.4805H42.0963V77.5332H49.3014V78.6816H40.5924V75.3867H47.5377V74.375H40.5514ZM40.6061 84.9707V81.5938H42.1373V83.7402H49.3287V84.9707H40.6061ZM62.8295 79.0371V80.2539H58.058V82.5234H56.5541V80.2539H51.5365V79.0371H62.8295ZM52.9037 84.9707V81.3887H54.4212V83.7402H61.5853V84.9707H52.9037ZM52.972 77.8887V73.418H61.3802V77.8887H52.972ZM54.4486 76.6992H59.8763V74.6074H54.4486V76.6992ZM67.9356 73.7188C69.8975 73.7119 71.3262 74.9492 71.3399 76.6992C71.3262 78.4561 69.8975 79.6865 67.9356 79.6934C65.9942 79.6865 64.5382 78.4561 64.545 76.6992C64.5382 74.9492 65.9942 73.7119 67.9356 73.7188ZM63.9845 81.4023C66.213 81.4023 69.296 81.375 71.9688 80.9922L72.0919 82.0996C69.3233 82.626 66.3565 82.6465 64.1759 82.6465L63.9845 81.4023ZM66.0489 76.6992C66.0421 77.7314 66.8555 78.3672 67.9356 78.3672C69.0294 78.3672 69.8428 77.7314 69.8497 76.6992C69.8428 75.6738 69.0362 75.0312 67.9356 75.0312C66.8555 75.0312 66.0421 75.6738 66.0489 76.6992ZM72.7071 85.2305V72.8574H74.2247V85.2305H72.7071Z" fill="white"/>
<path d="M70.6428 51.9955L64.8144 48.8571C63.3199 48.1099 62.2738 48.7077 61.0782 50.3516C58.3882 54.0877 57.0432 54.835 53.7554 52.8922C50.617 51.0988 48.3753 49.156 45.6853 46.3166C42.8458 43.4771 40.903 41.3848 39.1096 38.2465C37.3163 34.9586 38.0635 33.6136 41.6502 30.9236C43.2941 29.728 43.8919 28.5325 43.1447 27.1875L40.0063 21.3591C38.6613 18.8185 36.8679 18.5196 34.1779 19.5657C30.4418 20.7613 26.8551 26.2908 27.0045 28.8314C27.6023 36.3037 31.3384 45.2704 39.1096 53.1911C46.8808 60.9623 55.997 64.6984 63.4693 65.2962C66.0099 65.4457 71.39 61.8589 72.735 58.1228C73.3328 55.1339 73.0339 53.3405 70.6428 51.9955Z" fill="white"/>
<path d="M53.0082 29.4292C51.8126 29.4292 50.7665 30.4753 50.7665 31.6709C50.7665 32.8665 51.8126 33.9126 53.0082 33.9126C54.3532 33.9126 55.5487 34.3609 56.5949 35.407C57.4915 36.3037 58.0893 37.6487 58.0893 38.9937C58.0893 40.1893 59.1355 41.2354 60.331 41.2354C61.5266 41.2354 62.5727 40.1893 62.5727 38.9937C62.5727 36.4532 61.676 34.062 59.7332 32.2687C57.9399 30.3259 55.5488 29.4292 53.0082 29.4292ZM66.4583 25.5436C62.8716 21.9569 58.0893 20.0141 53.1576 20.0141C51.9621 20.0141 50.9159 21.0602 50.9159 22.2558C50.9159 23.4514 51.9621 24.4975 53.1576 24.4975C57.0432 24.4975 60.6299 25.9919 63.3199 28.682C66.01 31.372 67.5044 34.9587 67.5044 38.8443C67.5044 40.0399 68.5506 41.086 69.7461 41.086C70.9417 41.086 71.9878 40.0399 71.9878 38.8443C71.9878 33.9126 70.045 29.1303 66.4583 25.5436Z" fill="white"/>
</svg>
