<svg width="314" height="50" viewBox="0 0 314 50" fill="none" xmlns="http://www.w3.org/2000/svg">
<path d="M63.0408 9.73525V10.5522H64.6747C64.947 10.1437 65.0832 9.66717 65.1512 9.19062C65.2193 8.78215 65.2193 8.44175 65.2193 8.23752V4.62935H60.9304V8.44175H61.8154C62.4281 8.44175 63.0408 8.85023 63.0408 9.73525Z" fill="#11A55B"/>
<path d="M86.3238 16.407C86.1195 16.407 85.9153 16.2027 85.9153 15.9985V10.6884C85.9153 9.12255 85.8472 7.42058 84.6218 6.19516C83.7368 5.31014 81.4902 4.35704 79.3117 4.35704C77.2693 4.35704 75.8397 5.10591 75.0227 5.4463V4.35704H68.5552V15.9985C68.5552 16.2027 68.351 16.407 68.1468 16.407H67.1937V20.2194H76.6566V16.407H75.5673C75.3631 16.407 75.1589 16.2027 75.1589 15.9985V11.9819C75.1589 10.6203 76.2481 9.80333 77.4055 9.80333C78.699 9.80333 79.6521 10.6884 79.6521 11.8457V20.2194H87.413V16.3389H86.3238V16.407Z" fill="#11A55B"/>
<path d="M16.2027 12.5265C7.28442 12.5265 0 19.8109 0 28.7973C0 37.7837 7.28442 45 16.2027 45C25.1891 45 32.4054 37.7156 32.4054 28.7973C32.4735 19.8109 25.1891 12.5265 16.2027 12.5265ZM16.2027 36.2859C12.1861 36.2859 8.98639 32.9501 8.98639 28.7973C8.98639 24.6445 12.2542 21.3086 16.2027 21.3086C20.2194 21.3086 23.4191 24.6445 23.4191 28.7973C23.4191 32.9501 20.2194 36.2859 16.2027 36.2859Z" fill="#11A55B"/>
<path d="M65.2192 37.7156C64.6746 37.7156 64.1981 37.239 64.1981 36.6944V26.0741C64.1981 20.4917 63.9257 19.5386 61.1345 16.7473C60.1814 15.7942 59.0241 15.1135 57.7987 14.6369C56.0286 13.888 52.7608 13.4796 50.0377 14.0242C48.1996 14.3646 46.3614 15.0454 44.6595 16.0666V13.9561H36.0816V36.7625C36.0816 37.3071 35.605 37.7837 35.0604 37.7837H32.4734V43.8427H49.1527V37.7837H46.2934C45.7487 37.7837 45.2722 37.3071 45.2722 36.7625V27.1634C45.2722 23.8956 47.5188 21.8532 50.2419 21.8532C53.4416 21.8532 55.2117 24.0998 55.2117 26.823V43.8427H67.9424V37.7156H65.2192Z" fill="#11A55B"/>
<path d="M175.371 0C169.788 0 165.227 4.56127 165.227 10.1437C165.227 15.7262 169.788 20.2874 175.371 20.2874C180.953 20.2874 185.514 15.7262 185.514 10.1437C185.514 4.56127 180.953 0 175.371 0ZM175.03 12.6626V14.0923H171.558H169.448V12.3903C171.422 11.0968 173.056 9.93949 173.056 8.78215C173.056 8.10136 172.511 7.89713 172.103 7.89713C171.422 7.89713 171.082 8.37368 170.809 8.71407L169.448 7.69289C170.129 6.67171 171.218 6.19516 172.171 6.19516C173.873 6.19516 174.826 7.14826 174.894 8.50984C174.962 10.4841 172.852 12.118 172.171 12.5946H175.03V12.6626ZM181.702 12.5265H180.817V14.0923H179.115V12.5265H175.643V10.8926L177.958 6.33132H179.796L177.549 10.8926H179.115V9.12254H180.817V10.8926H181.702V12.5265Z" fill="#FF0000"/>
<path d="M112.058 12.5265C103.071 12.5265 95.8548 19.8109 95.8548 28.7292C95.8548 37.7156 103.139 44.9319 112.058 44.9319C121.044 44.9319 128.26 37.6475 128.26 28.7292C128.26 19.8109 121.044 12.5265 112.058 12.5265ZM112.058 36.2859C108.041 36.2859 104.841 32.9501 104.841 28.7973C104.841 24.6445 108.109 21.3086 112.058 21.3086C116.074 21.3086 119.274 24.6445 119.274 28.7973C119.274 32.9501 116.074 36.2859 112.058 36.2859Z" fill="#FF0000"/>
<path d="M163.593 23.0106V15.59H158.691V13.5477C158.691 11.6415 159.44 10.1437 162.504 10.1437V2.17853H161.142C154.743 2.17853 149.637 5.31015 149.637 12.5946V15.59H140.242V13.5477C140.242 11.6415 140.991 10.1437 144.055 10.1437V2.17853H142.693C136.294 2.17853 131.188 5.31015 131.188 12.5946V15.59H128.192V23.0106H131.188V36.8306C131.188 37.3752 130.711 37.8518 130.166 37.8518H128.192V43.8427H143.782V37.8518H141.263C140.719 37.8518 140.242 37.3752 140.242 36.8306V23.0106H149.637V36.8306C149.637 37.3752 149.16 37.8518 148.616 37.8518H146.369V43.8427H162.232V37.8518H159.713C159.168 37.8518 158.76 37.4433 158.691 36.8987V23.0106H163.593Z" fill="#FF0000"/>
<path d="M200.438 24V12.6875H205.062C207.609 12.6875 209.18 14.1328 209.172 16.4375C209.18 18 208.461 19.1094 207.211 19.6797L209.578 24H206.656L204.578 20.1094H203.094V24H200.438ZM203.094 17.9844H204.5C205.758 17.9922 206.422 17.5 206.422 16.4375C206.422 15.375 205.758 14.8438 204.5 14.8438H203.094V17.9844ZM210.672 24V12.6875H218.344V14.8594H213.328V17.25H217.844V19.4219H213.328V24H210.672ZM222.375 12.6875V24H219.719V12.6875H222.375ZM228.234 24H224.094V12.6875H228.234C231.688 12.6875 233.812 14.8047 233.812 18.3438C233.812 21.875 231.688 24 228.234 24ZM226.75 21.7188H228.141C230.078 21.7266 231.141 20.7969 231.141 18.3438C231.141 15.8828 230.078 14.9609 228.109 14.9531H226.75V21.7188ZM251.578 19.0781V20.875H246.094V25.4688H243.859V20.875H238.469V19.0781H251.578ZM239.969 17.6719V11.8281H250.062V17.6719H239.969ZM242.172 15.9062H247.812V13.6094H242.172V15.9062ZM264.359 11.1719V21.4219H262.109V11.1719H264.359ZM252.5 15.7031C252.492 13.5938 254.25 12.0547 256.469 12.0625C258.688 12.0547 260.438 13.5938 260.438 15.7031C260.438 17.8516 258.688 19.375 256.469 19.375C254.25 19.375 252.492 17.8516 252.5 15.7031ZM254.641 25.2656V20.3906H256.922V23.4688H264.719V25.2656H254.641ZM254.688 15.7031C254.688 16.8203 255.453 17.4219 256.469 17.4219C257.445 17.4219 258.211 16.8203 258.203 15.7031C258.211 14.6172 257.445 14.0078 256.469 14.0156C255.453 14.0078 254.688 14.6172 254.688 15.7031ZM204.047 33.9688C204.039 35.9688 205.594 38.2344 209.078 38.8125L208.094 40.6719C205.523 40.1875 203.766 38.8281 202.844 37.0781C201.914 38.8125 200.141 40.1797 197.594 40.6719L196.641 38.8125C200.047 38.2188 201.625 35.9375 201.641 33.9688V32.9688H204.047V33.9688ZM196.375 44.7969V42.9531H209.484V44.7969H196.375ZM217.594 33.5V43.0469H210.609V33.5H217.594ZM212.828 41.2656H215.359V35.25H212.828V41.2656ZM219.328 46.5V32.1562H221.578V37.4688H223.609V39.3281H221.578V46.5H219.328ZM235.75 39.4531V41.2188H225.531V33.1562H235.641V34.9688H227.828V36.2812H235.297V38.0312H227.828V39.4531H235.75ZM224.031 44.8906V43.0781H237.141V44.8906H224.031ZM253.578 32.1562V42.6875H251.344V39.3438H249.734V37.5156H251.344V36.4062H249.734V34.6094H251.344V32.1562H253.578ZM241.422 39.2656C241.867 39.2656 242.344 39.2656 242.844 39.2578V34.9375H241.781V33.1406H249.422V34.9375H248.328V39.0703C248.75 39.0312 249.164 39 249.562 38.9531L249.641 40.5938C247 41.0234 243.898 41.0938 241.656 41.0938L241.422 39.2656ZM243.953 46.2656V41.9219H246.219V44.4688H253.906V46.2656H243.953ZM245.016 39.2266C245.406 39.2188 245.797 39.2031 246.188 39.1875V34.9375H245.016V39.2266ZM259.891 33.0938C262.172 33.0859 263.891 34.5781 263.906 36.6562C263.891 38.7422 262.172 40.2266 259.891 40.2188C257.633 40.2266 255.875 38.7422 255.875 36.6562C255.875 34.5781 257.633 33.0859 259.891 33.0938ZM255.328 41.8594C257.852 41.8672 261.359 41.8281 264.391 41.4062L264.562 43.0312C261.422 43.6406 258.062 43.6719 255.578 43.6719L255.328 41.8594ZM258.109 36.6562C258.109 37.7266 258.891 38.2891 259.891 38.2812C260.914 38.2891 261.703 37.7266 261.719 36.6562C261.703 35.6094 260.922 35.0312 259.891 35.0312C258.883 35.0312 258.109 35.6094 258.109 36.6562ZM265.156 46.5312V32.1562H267.391V46.5312H265.156ZM281.234 32.1562V40.4219H279V37.2031H276.922V35.375H279V32.1562H281.234ZM268.969 38.7188C271.273 38 272.219 36.2891 272.336 34.625H269.594V32.8281H277.375V34.625H274.648C274.75 36.1484 275.664 37.75 277.859 38.4844L276.766 40.25C275.195 39.7422 274.141 38.7578 273.516 37.5312C272.891 38.8828 271.789 39.9688 270.125 40.4844L268.969 38.7188ZM271.516 46.3438V40.9688H281.234V46.3438H271.516ZM273.781 44.5469H279.047V42.7344H273.781V44.5469ZM294.688 33.5938V35.3594H291.906C291.977 36.6953 292.891 38.0547 295.188 38.6406L294.172 40.4062C292.562 39.9922 291.469 39.1328 290.82 38.0547C290.188 39.2891 289.086 40.2734 287.422 40.75L286.344 38.9844C288.656 38.3828 289.602 36.8594 289.656 35.3594H286.891V33.5938H289.656V32.1094H291.922V33.5938H294.688ZM288.234 43.7656C288.227 42 290.117 41 293.188 41C296.203 41 298.062 42 298.062 43.7656C298.062 45.4844 296.203 46.4922 293.188 46.4844C290.117 46.4922 288.227 45.4844 288.234 43.7656ZM290.484 43.7656C290.477 44.4844 291.375 44.8047 293.188 44.8125C294.953 44.8047 295.836 44.4844 295.844 43.7656C295.836 43.0156 294.953 42.7266 293.188 42.7188C291.375 42.7266 290.477 43.0156 290.484 43.7656ZM295.672 40.7656V32.1562H297.922V35.4531H299.781V37.2656H297.922V40.7656H295.672ZM304.344 32.75C306.148 32.7422 307.609 33.7734 308.031 35.2812H310.234V32.1562H312.469V39.875H310.234V37.0469H308.039C307.633 38.5938 306.156 39.6328 304.344 39.6406C302.133 39.6328 300.484 38.1797 300.5 36.1719C300.484 34.2031 302.133 32.7422 304.344 32.75ZM302.625 36.1719C302.625 37.1641 303.336 37.7578 304.344 37.75C305.32 37.7578 306.016 37.1641 306.016 36.1719C306.016 35.1797 305.32 34.6094 304.344 34.6094C303.336 34.6094 302.625 35.1797 302.625 36.1719ZM302.812 46.3438V40.4688H305.016V41.7031H310.234V40.4688H312.469V46.3438H302.812ZM305.016 44.5312H310.234V43.4219H305.016V44.5312Z" fill="black"/>
</svg>
